<?xml version="1.0" encoding="UTF-8"?>
<svg xmlns="http://www.w3.org/2000/svg" width="250px" height="250px" viewBox="0 0 283.46 283.46">
	<title>Paris transit icons - Câble C1</title>
	<path fill="#FFF" d="M0,28.35h283.46v226.76H0z"/>
	<rect fill="#5291CE" width="283.46" height="42.52" rx="14.17"/>
	<rect fill="#5291CE" width="283.46" height="42.52" rx="14.17" y="240.94"/>
	<path fill="#25303B" d="M104.17,199.58c-27.69,0-54.14-18.25-54.14-56,0-32.63,19-58.77,54.14-58.77,13.45,0,23.34,2.79,31.24,6.34l-7.9,20a45.9,45.9,0,0,0-22.11-5.88c-16.71,0-30.32,11-30.32,37.27,0,25.06,16.4,36.65,32.18,36.65a43.16,43.16,0,0,0,21.8-5.87l6.5,18.72A70.29,70.29,0,0,1,104.17,199.58zM194.14,197V111.12c-6.65,5.25-17.17,10.36-24.44,13.6L162.28,108c11.44-4.8,25.21-12.06,36-20.26h19V197Z"/>
</svg>