<?xml version="1.0" encoding="UTF-8"?>
<svg xmlns="http://www.w3.org/2000/svg" width="250px" height="250px" viewBox="0 0 283.46 283.46">
	<title>Paris transit icons - Câble C4</title>
	<path fill="#FFF" d="M0,28.35h283.46v226.76H0z"/>
	<rect fill="#C04191" width="283.46" height="42.52" rx="14.17"/>
	<rect fill="#C04191" width="283.46" height="42.52" rx="14.17" y="240.94"/>
	<path fill="#25303B" d="M104.17,199.59c-27.69,0-54.14-18.25-54.14-55.99c0-32.63,19.03-58.77,54.14-58.77c13.45,0,23.35,2.79,31.24,6.34l-7.89,19.96c-7.11-4.02-15.15-5.88-22.11-5.88c-16.71,0-30.32,10.98-30.32,37.27c0,25.06,16.4,36.66,32.17,36.66c8.66,0,16.4-2.63,21.8-5.88l6.5,18.72C127.2,196.5,115.3,199.59,104.17,199.59zM229.25,174.22v22.74H207.6v-22.74h-49.18v-20.26l42.37-66.2h28.46v69.45h12.84v17.01H229.25zM207.6,106.94h-0.31c-0.46,1.86-3.56,8.51-7.89,15.31l-22.27,34.96h30.47V106.94z"/>
</svg>