<?xml version="1.0" encoding="UTF-8"?>
<svg xmlns="http://www.w3.org/2000/svg" width="250px" height="250px" viewBox="0 0 283.46 283.46">
	<title>Paris transit icons - Câble C3</title>
	<path fill="#FFF" d="M0,28.35h283.46v226.76H0z"/>
	<rect fill="#00A88F" width="283.46" height="42.52" rx="14.17"/>
	<rect fill="#00A88F" width="283.46" height="42.52" rx="14.17" y="240.94"/>
	<path fill="#25303B" d="M104.17,199.58c-27.69,0-54.14-18.25-54.14-55.99c0-32.63,19.03-58.77,54.14-58.77c13.45,0,23.35,2.79,31.24,6.34l-7.89,19.96c-7.11-4.02-15.15-5.88-22.11-5.88c-16.71,0-30.32,10.98-30.32,37.27c0,25.06,16.4,36.66,32.17,36.66c8.66,0,16.4-2.63,21.8-5.88l6.5,18.72C127.2,196.49,115.3,199.58,104.17,199.58zM193.06,199.58c-15.62,0-24.28-3.86-31.55-8.19l8.5-16.86c4.64,3.25,12.22,7.11,21.5,7.11c12.69,0,20.57-7.42,20.57-16.7c0-12.53-9.59-16.86-20.72-16.86h-11.29v-18.1h11.44c10.67,0,17.32-5.57,17.32-13.92c0-6.96-5.26-13.3-16.7-13.3c-10.06,0-16.71,4.79-20.27,7.89l-7.88-16.09c9.28-6.19,19.34-9.75,33.1-9.75c22.27,0,34.95,13.3,34.95,27.84c0,11.29-6.03,20.26-17.63,24.59v0.31c12.06,2.32,21.19,11.6,21.19,26.91C235.59,183.66,218.42,199.58,193.06,199.58z"/>
</svg>